<mxfile host="app.diagrams.net" modified="2024-01-18T06:37:14.542Z" agent="Mozilla/5.0 (Windows NT 10.0; Win64; x64) AppleWebKit/537.36 (KHTML, like Gecko) Chrome/120.0.0.0 Safari/537.36" version="22.1.21" etag="xanUKm6pBM48lf8U6VW0" type="github">
  <diagram name="Page-1" id="wR3aqxPQWbb-yppE_qRJ">
    <mxGraphModel>
      <root>
        <mxCell id="0" />
        <mxCell id="1" parent="0" />
      </root>
    </mxGraphModel>
  </diagram>
</mxfile>
